{"title":"The Victoria's Secret Fashion Show 2012 1080i HDTV","uid":7891487,"size":5365879456,"categoryP":"video","categoryS":"hd___tv_shows","magnet":"?xt=urn:btih:4f8b36e95f0e55e2b1bca8d352ae72d88c1ad2cb&amp;dn=The+Victoria%27s+Secret+Fashion+Show+2012+1080i+HDTV+&amp;tr=udp%3A%2F%2Ftracker.openbittorrent.com%3A80&amp;tr=udp%3A%2F%2Fopen.demonii.com%3A1337&amp;tr=udp%3A%2F%2Ftracker.coppersurfer.tk%3A6969&amp;tr=udp%3A%2F%2Fexodus.desync.com%3A6969","seeders":7,"leechers":2,"uploader":"geenotreally","files":-1,"time":1354731847,"description":"-----------------------------------------------------------------------------------\n          The Victoria's Secret Fashion Show 2012 1080i HDTV MPEG2 AC3 5.1\n-----------------------------------------------------------------------------------\n\nFormat                           : MPEG-TS\nFile size                        : 5.00 GiB\nDuration                         : 43mn 28s\nOverall bit rate mode            : Variable\nOverall bit rate                 : 16.5 Mbps\n\n-----------------------------------------------------------------------------------\nVideo\n-----------------------------------------------------------------------------------\nFormat                           : MPEG Video\nDuration                         : 43mn 28s\nBit rate mode                    : Variable\nBit rate                         : 15.3 Mbps\nMaximum bit rate                 : 38.8 Mbps\nWidth                            : 1 920 pixels\nHeight                           : 1 080 pixels\nDisplay aspect ratio             : 16:9\nFrame rate                       : 29.970 fps\nStandard                         : Component\nColor space                      : YUV\nChroma subsampling               : 4:2:0\nBit depth                        : 8 bits\nScan type                        : Interlaced\nScan order                       : Top Field First\nCompression mode                 : Lossy\nBits/(Pixel*Frame)               : 0.245\nStream size                      : 4.63 GiB (93%)\n-----------------------------------------------------------------------------------\nAudio\n-----------------------------------------------------------------------------------\nFormat                           : AC-3\nDuration                         : 43mn 28s\nBit rate mode                    : Constant\nBit rate                         : 384 Kbps\nChannel(s)                       : 6 channels\nChannel positions                : Front: L C R, Side: L R, LFE\nSampling rate                    : 48.0 KHz\nBit depth                        : 16 bits\nCompression mode                 : Lossy\nStream size                      : 119 MiB (2%)\nLanguage                         : English\n-----------------------------------------------------------------------------------\n\nEnjoy !","torrent":{"xt":"urn:btih:4f8b36e95f0e55e2b1bca8d352ae72d88c1ad2cb","amp;dn":"The+Victoria%27s+Secret+Fashion+Show+2012+1080i+HDTV+","amp;tr":["udp%3A%2F%2Ftracker.openbittorrent.com%3A80","udp%3A%2F%2Fopen.demonii.com%3A1337","udp%3A%2F%2Ftracker.coppersurfer.tk%3A6969","udp%3A%2F%2Fexodus.desync.com%3A6969"],"infoHash":"4f8b36e95f0e55e2b1bca8d352ae72d88c1ad2cb","infoHashBuffer":{"type":"Buffer","data":[79,139,54,233,95,14,85,226,177,188,168,211,82,174,114,216,140,26,210,203]},"announce":[],"urlList":[]}}